<?xml version="1.0" standalone="no"?>
<!DOCTYPE svg PUBLIC "-//W3C//DTD SVG 20010904//EN"
 "http://www.w3.org/TR/2001/REC-SVG-20010904/DTD/svg10.dtd">
<svg version="1.0" xmlns="http://www.w3.org/2000/svg"
 width="350.000000pt" height="350.000000pt" viewBox="0 0 350.000000 350.000000"
 preserveAspectRatio="xMidYMid meet">
<metadata>
Created by potrace 1.14, written by Peter Selinger 2001-2017
</metadata>
<g transform="translate(0.000000,350.000000) scale(0.100000,-0.100000)"
fill="#000000" stroke="none">
<path d="M1468 3370 c-27 -15 -52 -19 -101 -18 -61 2 -69 0 -121 -36 -31 -21
-82 -51 -115 -66 -62 -30 -104 -74 -118 -127 -5 -20 -21 -41 -43 -55 -19 -13
-44 -41 -55 -62 -11 -21 -30 -43 -43 -47 -23 -9 -52 -63 -52 -97 0 -10 -9 -27
-19 -36 -21 -19 -41 -87 -41 -141 0 -19 -8 -61 -19 -93 -10 -31 -22 -99 -26
-149 -6 -86 -5 -97 19 -149 19 -41 26 -73 26 -116 0 -63 12 -98 35 -98 23 0
116 -112 109 -132 -4 -13 0 -18 13 -18 11 0 37 -18 58 -40 38 -39 38 -40 15
-40 -29 0 -86 -32 -111 -63 -45 -56 -48 -176 -5 -239 12 -18 36 -42 53 -54 33
-22 122 -38 160 -28 19 5 23 0 33 -38 36 -141 79 -233 152 -326 l49 -62 -52
-198 c-29 -108 -55 -200 -58 -204 -3 -3 -37 1 -76 9 -82 17 -118 12 -203 -28
-124 -59 -291 -265 -420 -517 -47 -90 -51 -102 -33 -102 15 0 36 30 87 124
134 246 264 400 392 463 73 37 74 37 145 26 40 -6 97 -20 127 -32 53 -20 79
-34 310 -168 130 -75 214 -105 300 -107 91 -1 135 10 176 46 55 48 66 79 63
170 l-3 80 39 24 c157 95 431 -101 755 -539 50 -68 69 -87 88 -87 18 0 22 3
15 13 -318 421 -459 563 -641 644 -77 34 -170 36 -229 5 -48 -25 -43 -32 -68
86 -19 94 -19 122 0 122 28 0 146 59 210 105 95 67 160 146 215 260 87 177 99
305 50 517 -19 83 -27 135 -21 142 5 6 16 62 24 123 12 94 18 116 36 130 15
12 24 34 28 63 3 25 14 64 25 88 25 54 29 196 9 326 -11 73 -19 94 -39 113
-30 27 -56 82 -66 137 -10 54 -147 261 -186 281 -16 8 -39 33 -49 54 -12 22
-42 53 -73 74 -50 35 -58 37 -132 37 -62 0 -98 7 -168 31 -69 23 -105 30 -156
29 -37 -1 -105 1 -152 4 -73 6 -90 4 -122 -14z m263 -26 c76 -3 114 -10 179
-34 71 -26 90 -29 148 -24 63 6 70 4 112 -24 25 -17 57 -50 71 -74 14 -24 38
-49 53 -56 15 -8 38 -30 52 -50 99 -148 119 -183 131 -228 20 -77 38 -117 66
-140 20 -18 26 -35 31 -90 4 -38 12 -83 17 -100 15 -47 -4 -190 -30 -225 -14
-19 -21 -43 -21 -73 0 -27 -5 -48 -14 -53 -23 -14 -34 -46 -46 -133 -6 -47
-13 -86 -14 -88 -2 -1 -6 30 -9 70 -3 40 -12 87 -20 103 -9 17 -27 84 -42 150
-14 66 -28 128 -31 138 -7 24 -44 57 -64 57 -9 0 -40 20 -68 44 -39 34 -66 47
-108 56 -31 7 -65 9 -76 7 -11 -3 -43 3 -70 14 -58 23 -118 24 -173 3 -25 -10
-67 -15 -111 -14 -50 1 -86 -5 -125 -19 -38 -15 -77 -21 -132 -21 -59 0 -79
-3 -83 -15 -11 -27 -73 -57 -125 -61 -84 -5 -104 -25 -128 -129 -7 -27 -26
-67 -42 -88 -29 -36 -30 -40 -20 -85 8 -40 7 -51 -10 -78 -10 -17 -22 -61 -26
-98 l-8 -66 -27 27 c-15 16 -51 56 -79 91 -28 35 -58 66 -67 69 -27 10 -33 25
-27 74 5 36 1 58 -19 103 -34 76 -41 116 -23 140 11 15 12 26 4 47 -9 21 -5
44 16 110 14 46 28 110 30 142 2 40 10 64 24 80 12 12 24 41 28 65 7 45 34 72
71 72 17 0 21 5 17 20 -7 28 22 69 61 85 27 12 34 21 40 53 9 56 38 88 125
133 42 22 91 51 110 64 27 20 44 24 95 23 44 -1 73 4 106 20 36 17 56 20 100
16 30 -3 98 -8 151 -10z m229 -784 c30 -11 78 -19 107 -20 65 0 97 -12 142
-53 20 -18 50 -38 68 -46 39 -16 40 -18 108 -306 30 -126 69 -286 85 -355 36
-146 42 -294 15 -395 -57 -220 -226 -401 -444 -479 -78 -28 -97 -30 -211 -30
-144 0 -201 13 -322 76 -137 71 -254 200 -312 344 -13 32 -34 104 -47 158 -17
69 -25 92 -29 75 -7 -27 -52 -40 -109 -32 -88 14 -134 71 -135 169 -1 49 4 69
20 91 35 47 80 67 150 66 44 0 64 4 68 13 4 9 -2 14 -17 14 -44 0 -52 15 -55
99 -4 69 -1 85 18 116 18 30 21 45 16 85 -6 43 -3 53 24 94 18 26 35 67 39 96
10 64 33 90 80 90 54 0 103 17 133 45 23 21 37 25 89 25 41 0 88 9 138 26 60
21 86 25 128 20 35 -4 65 -1 90 8 77 30 94 30 163 6z m-557 -1582 c23 -18 59
-42 79 -52 20 -11 43 -31 50 -45 20 -38 120 -116 190 -149 75 -35 140 -51 228
-57 l65 -4 13 -48 c22 -77 20 -177 -4 -210 -29 -40 -99 -73 -156 -73 -108 0
-195 34 -388 150 -52 32 -127 73 -166 93 l-72 36 35 128 c18 70 41 158 50 196
9 37 20 67 25 67 4 0 27 -15 51 -32z"/>
<path d="M2274 2249 c-22 -25 -130 -79 -157 -79 -9 0 -26 5 -37 12 -24 15 -38
3 -24 -20 7 -10 27 -18 52 -20 71 -5 228 84 207 117 -9 16 -20 13 -41 -10z"/>
<path d="M1460 2190 c-68 -35 -119 -85 -103 -101 9 -9 24 -1 58 29 59 52 129
80 156 64 10 -6 25 -9 34 -6 14 6 14 8 -1 25 -25 27 -79 23 -144 -11z"/>
<path d="M2091 2097 c-28 -17 -50 -53 -51 -85 l0 -24 36 23 c22 13 61 25 97
28 l60 6 -24 28 c-29 33 -83 44 -118 24z"/>
<path d="M1501 2007 c-13 -8 -30 -25 -37 -38 -13 -24 -19 -69 -9 -69 3 0 19
10 36 23 24 17 44 22 90 22 32 0 59 3 59 7 0 4 -10 19 -22 33 -28 31 -83 41
-117 22z"/>
<path d="M1880 1778 c0 -35 24 -92 51 -119 36 -36 28 -61 -26 -79 -20 -6 -35
-18 -35 -27 0 -10 6 -13 16 -9 9 3 22 6 31 6 19 0 73 54 73 73 0 8 -15 33 -34
56 -18 22 -37 56 -40 76 -6 33 -36 52 -36 23z"/>
<path d="M983 1760 c-30 -12 -66 -71 -52 -85 6 -6 18 0 34 20 l24 30 15 -37
c9 -21 16 -49 16 -63 0 -16 6 -25 15 -25 10 0 15 10 15 30 0 17 -7 47 -15 67
-19 46 -20 45 13 41 19 -2 27 2 27 12 0 18 -58 24 -92 10z"/>
<path d="M1875 1526 c-40 -17 -90 -75 -105 -122 -7 -22 -10 -63 -7 -100 20
-249 315 -292 377 -55 44 169 -120 340 -265 277z"/>
</g>
</svg>
